<svg xmlns="http://www.w3.org/2000/svg" xmlns:xlink="http://www.w3.org/1999/xlink" width="502" height="568"><defs><path id="a" d="M3 3h12v12H3z"/></defs><path fill="none" d="M-1-1h504v570H-1z"/><g><use x="25.461557" y="13.153829" xlink:href="#a"/><use x="37.461557" y="13.153829" xlink:href="#a"/><use x="49.461557" y="13.153829" xlink:href="#a"/><use x="61.461557" y="13.153829" xlink:href="#a"/><use x="73.461557" y="13.153829" xlink:href="#a"/><use x="85.461557" y="13.153829" xlink:href="#a"/><use x="97.461557" y="13.153829" xlink:href="#a"/><use x="121.461557" y="13.153829" xlink:href="#a"/><use x="133.461557" y="13.153829" xlink:href="#a"/><use x="169.461557" y="13.153829" xlink:href="#a"/><use x="181.461557" y="13.153829" xlink:href="#a"/><use x="217.461557" y="13.153829" xlink:href="#a"/><use x="241.461557" y="13.153829" xlink:href="#a"/><use x="265.461557" y="13.153829" xlink:href="#a"/><use x="337.461557" y="13.153829" xlink:href="#a"/><use x="349.461557" y="13.153829" xlink:href="#a"/><use x="385.461557" y="13.153829" xlink:href="#a"/><use x="397.461557" y="13.153829" xlink:href="#a"/><use x="409.461557" y="13.153829" xlink:href="#a"/><use x="421.461557" y="13.153829" xlink:href="#a"/><use x="433.461557" y="13.153829" xlink:href="#a"/><use x="445.461557" y="13.153829" xlink:href="#a"/><use x="457.461557" y="13.153829" xlink:href="#a"/><use x="25.461557" y="25.153829" xlink:href="#a"/><use x="97.461557" y="25.153829" xlink:href="#a"/><use x="121.461557" y="25.153829" xlink:href="#a"/><use x="133.461557" y="25.153829" xlink:href="#a"/><use x="157.461557" y="25.153829" xlink:href="#a"/><use x="169.461557" y="25.153829" xlink:href="#a"/><use x="181.461557" y="25.153829" xlink:href="#a"/><use x="193.461557" y="25.153829" xlink:href="#a"/><use x="229.461557" y="25.153829" xlink:href="#a"/><use x="253.461557" y="25.153829" xlink:href="#a"/><use x="277.461557" y="25.153829" xlink:href="#a"/><use x="301.461557" y="25.153829" xlink:href="#a"/><use x="313.461557" y="25.153829" xlink:href="#a"/><use x="325.461557" y="25.153829" xlink:href="#a"/><use x="349.461557" y="25.153829" xlink:href="#a"/><use x="385.461557" y="25.153829" xlink:href="#a"/><use x="457.461557" y="25.153829" xlink:href="#a"/><use x="25.461557" y="37.153829" xlink:href="#a"/><use x="49.461557" y="37.153829" xlink:href="#a"/><use x="61.461557" y="37.153829" xlink:href="#a"/><use x="73.461557" y="37.153829" xlink:href="#a"/><use x="97.461557" y="37.153829" xlink:href="#a"/><use x="217.461557" y="37.153829" xlink:href="#a"/><use x="241.461557" y="37.153829" xlink:href="#a"/><use x="253.461557" y="37.153829" xlink:href="#a"/><use x="265.461557" y="37.153829" xlink:href="#a"/><use x="349.461557" y="37.153829" xlink:href="#a"/><use x="361.461557" y="37.153829" xlink:href="#a"/><use x="385.461557" y="37.153829" xlink:href="#a"/><use x="409.461557" y="37.153829" xlink:href="#a"/><use x="421.461557" y="37.153829" xlink:href="#a"/><use x="433.461557" y="37.153829" xlink:href="#a"/><use x="457.461557" y="37.153829" xlink:href="#a"/><use x="25.461557" y="49.153829" xlink:href="#a"/><use x="49.461557" y="49.153829" xlink:href="#a"/><use x="61.461557" y="49.153829" xlink:href="#a"/><use x="73.461557" y="49.153829" xlink:href="#a"/><use x="97.461557" y="49.153829" xlink:href="#a"/><use x="121.461557" y="49.153829" xlink:href="#a"/><use x="157.461557" y="49.153829" xlink:href="#a"/><use x="193.461557" y="49.153829" xlink:href="#a"/><use x="253.461557" y="49.153829" xlink:href="#a"/><use x="277.461557" y="49.153829" xlink:href="#a"/><use x="289.461557" y="49.153829" xlink:href="#a"/><use x="337.461557" y="49.153829" xlink:href="#a"/><use x="349.461557" y="49.153829" xlink:href="#a"/><use x="361.461557" y="49.153829" xlink:href="#a"/><use x="385.461557" y="49.153829" xlink:href="#a"/><use x="409.461557" y="49.153829" xlink:href="#a"/><use x="421.461557" y="49.153829" xlink:href="#a"/><use x="433.461557" y="49.153829" xlink:href="#a"/><use x="457.461557" y="49.153829" xlink:href="#a"/><use x="25.461557" y="61.153829" xlink:href="#a"/><use x="49.461557" y="61.153829" xlink:href="#a"/><use x="61.461557" y="61.153829" xlink:href="#a"/><use x="73.461557" y="61.153829" xlink:href="#a"/><use x="97.461557" y="61.153829" xlink:href="#a"/><use x="121.461557" y="61.153829" xlink:href="#a"/><use x="133.461557" y="61.153829" xlink:href="#a"/><use x="145.461557" y="61.153829" xlink:href="#a"/><use x="169.461557" y="61.153829" xlink:href="#a"/><use x="181.461557" y="61.153829" xlink:href="#a"/><use x="193.461557" y="61.153829" xlink:href="#a"/><use x="217.461557" y="61.153829" xlink:href="#a"/><use x="229.461557" y="61.153829" xlink:href="#a"/><use x="301.461557" y="61.153829" xlink:href="#a"/><use x="313.461557" y="61.153829" xlink:href="#a"/><use x="325.461557" y="61.153829" xlink:href="#a"/><use x="349.461557" y="61.153829" xlink:href="#a"/><use x="361.461557" y="61.153829" xlink:href="#a"/><use x="385.461557" y="61.153829" xlink:href="#a"/><use x="409.461557" y="61.153829" xlink:href="#a"/><use x="421.461557" y="61.153829" xlink:href="#a"/><use x="433.461557" y="61.153829" xlink:href="#a"/><use x="457.461557" y="61.153829" xlink:href="#a"/><use x="25.461557" y="73.153829" xlink:href="#a"/><use x="97.461557" y="73.153829" xlink:href="#a"/><use x="121.461557" y="73.153829" xlink:href="#a"/><use x="133.461557" y="73.153829" xlink:href="#a"/><use x="157.461557" y="73.153829" xlink:href="#a"/><use x="169.461557" y="73.153829" xlink:href="#a"/><use x="193.461557" y="73.153829" xlink:href="#a"/><use x="205.461557" y="73.153829" xlink:href="#a"/><use x="229.461557" y="73.153829" xlink:href="#a"/><use x="241.461557" y="73.153829" xlink:href="#a"/><use x="265.461557" y="73.153829" xlink:href="#a"/><use x="277.461557" y="73.153829" xlink:href="#a"/><use x="289.461557" y="73.153829" xlink:href="#a"/><use x="337.461557" y="73.153829" xlink:href="#a"/><use x="349.461557" y="73.153829" xlink:href="#a"/><use x="361.461557" y="73.153829" xlink:href="#a"/><use x="385.461557" y="73.153829" xlink:href="#a"/><use x="457.461557" y="73.153829" xlink:href="#a"/><use x="25.461557" y="85.153829" xlink:href="#a"/><use x="37.461557" y="85.153829" xlink:href="#a"/><use x="49.461557" y="85.153829" xlink:href="#a"/><use x="61.461557" y="85.153829" xlink:href="#a"/><use x="73.461557" y="85.153829" xlink:href="#a"/><use x="85.461557" y="85.153829" xlink:href="#a"/><use x="97.461557" y="85.153829" xlink:href="#a"/><use x="121.461557" y="85.153829" xlink:href="#a"/><use x="145.461557" y="85.153829" xlink:href="#a"/><use x="169.461557" y="85.153829" xlink:href="#a"/><use x="193.461557" y="85.153829" xlink:href="#a"/><use x="217.461557" y="85.153829" xlink:href="#a"/><use x="241.461557" y="85.153829" xlink:href="#a"/><use x="265.461557" y="85.153829" xlink:href="#a"/><use x="289.461557" y="85.153829" xlink:href="#a"/><use x="313.461557" y="85.153829" xlink:href="#a"/><use x="337.461557" y="85.153829" xlink:href="#a"/><use x="361.461557" y="85.153829" xlink:href="#a"/><use x="385.461557" y="85.153829" xlink:href="#a"/><use x="397.461557" y="85.153829" xlink:href="#a"/><use x="409.461557" y="85.153829" xlink:href="#a"/><use x="421.461557" y="85.153829" xlink:href="#a"/><use x="433.461557" y="85.153829" xlink:href="#a"/><use x="445.461557" y="85.153829" xlink:href="#a"/><use x="457.461557" y="85.153829" xlink:href="#a"/><use x="145.461557" y="97.153829" xlink:href="#a"/><use x="205.461557" y="97.153829" xlink:href="#a"/><use x="217.461557" y="97.153829" xlink:href="#a"/><use x="229.461557" y="97.153829" xlink:href="#a"/><use x="241.461557" y="97.153829" xlink:href="#a"/><use x="289.461557" y="97.153829" xlink:href="#a"/><use x="301.461557" y="97.153829" xlink:href="#a"/><use x="313.461557" y="97.153829" xlink:href="#a"/><use x="61.461557" y="109.153829" xlink:href="#a"/><use x="97.461557" y="109.153829" xlink:href="#a"/><use x="169.461557" y="109.153829" xlink:href="#a"/><use x="181.461557" y="109.153829" xlink:href="#a"/><use x="217.461557" y="109.153829" xlink:href="#a"/><use x="229.461557" y="109.153829" xlink:href="#a"/><use x="241.461557" y="109.153829" xlink:href="#a"/><use x="277.461557" y="109.153829" xlink:href="#a"/><use x="289.461557" y="109.153829" xlink:href="#a"/><use x="313.461557" y="109.153829" xlink:href="#a"/><use x="325.461557" y="109.153829" xlink:href="#a"/><use x="349.461557" y="109.153829" xlink:href="#a"/><use x="397.461557" y="109.153829" xlink:href="#a"/><use x="409.461557" y="109.153829" xlink:href="#a"/><use x="421.461557" y="109.153829" xlink:href="#a"/><use x="445.461557" y="109.153829" xlink:href="#a"/><use x="457.461557" y="109.153829" xlink:href="#a"/><use x="49.461557" y="121.153829" xlink:href="#a"/><use x="145.461557" y="121.153829" xlink:href="#a"/><use x="193.461557" y="121.153829" xlink:href="#a"/><use x="205.461557" y="121.153829" xlink:href="#a"/><use x="229.461557" y="121.153829" xlink:href="#a"/><use x="253.461557" y="121.153829" xlink:href="#a"/><use x="265.461557" y="121.153829" xlink:href="#a"/><use x="277.461557" y="121.153829" xlink:href="#a"/><use x="325.461557" y="121.153829" xlink:href="#a"/><use x="337.461557" y="121.153829" xlink:href="#a"/><use x="373.461557" y="121.153829" xlink:href="#a"/><use x="385.461557" y="121.153829" xlink:href="#a"/><use x="445.461557" y="121.153829" xlink:href="#a"/><use x="457.461557" y="121.153829" xlink:href="#a"/><use x="25.461557" y="133.153829" xlink:href="#a"/><use x="37.461557" y="133.153829" xlink:href="#a"/><use x="49.461557" y="133.153829" xlink:href="#a"/><use x="97.461557" y="133.153829" xlink:href="#a"/><use x="121.461557" y="133.153829" xlink:href="#a"/><use x="133.461557" y="133.153829" xlink:href="#a"/><use x="169.461557" y="133.153829" xlink:href="#a"/><use x="205.461557" y="133.153829" xlink:href="#a"/><use x="229.461557" y="133.153829" xlink:href="#a"/><use x="241.461557" y="133.153829" xlink:href="#a"/><use x="265.461557" y="133.153829" xlink:href="#a"/><use x="313.461557" y="133.153829" xlink:href="#a"/><use x="361.461557" y="133.153829" xlink:href="#a"/><use x="385.461557" y="133.153829" xlink:href="#a"/><use x="397.461557" y="133.153829" xlink:href="#a"/><use x="421.461557" y="133.153829" xlink:href="#a"/><use x="433.461557" y="133.153829" xlink:href="#a"/><use x="457.461557" y="133.153829" xlink:href="#a"/><use x="25.461557" y="145.153829" xlink:href="#a"/><use x="37.461557" y="145.153829" xlink:href="#a"/><use x="73.461557" y="145.153829" xlink:href="#a"/><use x="85.461557" y="145.153829" xlink:href="#a"/><use x="109.461557" y="145.153829" xlink:href="#a"/><use x="121.461557" y="145.153829" xlink:href="#a"/><use x="145.461557" y="145.153829" xlink:href="#a"/><use x="193.461557" y="145.153829" xlink:href="#a"/><use x="205.461557" y="145.153829" xlink:href="#a"/><use x="217.461557" y="145.153829" xlink:href="#a"/><use x="229.461557" y="145.153829" xlink:href="#a"/><use x="289.461557" y="145.153829" xlink:href="#a"/><use x="325.461557" y="145.153829" xlink:href="#a"/><use x="349.461557" y="145.153829" xlink:href="#a"/><use x="409.461557" y="145.153829" xlink:href="#a"/><use x="457.461557" y="145.153829" xlink:href="#a"/><use x="25.461557" y="157.153829" xlink:href="#a"/><use x="37.461557" y="157.153829" xlink:href="#a"/><use x="61.461557" y="157.153829" xlink:href="#a"/><use x="85.461557" y="157.153829" xlink:href="#a"/><use x="97.461557" y="157.153829" xlink:href="#a"/><use x="109.461557" y="157.153829" xlink:href="#a"/><use x="121.461557" y="157.153829" xlink:href="#a"/><use x="133.461557" y="157.153829" xlink:href="#a"/><use x="169.461557" y="157.153829" xlink:href="#a"/><use x="181.461557" y="157.153829" xlink:href="#a"/><use x="205.461557" y="157.153829" xlink:href="#a"/><use x="241.461557" y="157.153829" xlink:href="#a"/><use x="265.461557" y="157.153829" xlink:href="#a"/><use x="289.461557" y="157.153829" xlink:href="#a"/><use x="313.461557" y="157.153829" xlink:href="#a"/><use x="325.461557" y="157.153829" xlink:href="#a"/><use x="349.461557" y="157.153829" xlink:href="#a"/><use x="361.461557" y="157.153829" xlink:href="#a"/><use x="385.461557" y="157.153829" xlink:href="#a"/><use x="397.461557" y="157.153829" xlink:href="#a"/><use x="433.461557" y="157.153829" xlink:href="#a"/><use x="457.461557" y="157.153829" xlink:href="#a"/><use x="25.461557" y="169.153829" xlink:href="#a"/><use x="85.461557" y="169.153829" xlink:href="#a"/><use x="133.461557" y="169.153829" xlink:href="#a"/><use x="157.461557" y="169.153829" xlink:href="#a"/><use x="181.461557" y="169.153829" xlink:href="#a"/><use x="193.461557" y="169.153829" xlink:href="#a"/><use x="205.461557" y="169.153829" xlink:href="#a"/><use x="241.461557" y="169.153829" xlink:href="#a"/><use x="253.461557" y="169.153829" xlink:href="#a"/><use x="325.461557" y="169.153829" xlink:href="#a"/><use x="385.461557" y="169.153829" xlink:href="#a"/><use x="397.461557" y="169.153829" xlink:href="#a"/><use x="421.461557" y="169.153829" xlink:href="#a"/><use x="445.461557" y="169.153829" xlink:href="#a"/><use x="457.461557" y="169.153829" xlink:href="#a"/><use x="25.461557" y="181.153829" xlink:href="#a"/><use x="49.461557" y="181.153829" xlink:href="#a"/><use x="61.461557" y="181.153829" xlink:href="#a"/><use x="73.461557" y="181.153829" xlink:href="#a"/><use x="85.461557" y="181.153829" xlink:href="#a"/><use x="97.461557" y="181.153829" xlink:href="#a"/><use x="109.461557" y="181.153829" xlink:href="#a"/><use x="121.461557" y="181.153829" xlink:href="#a"/><use x="145.461557" y="181.153829" xlink:href="#a"/><use x="169.461557" y="181.153829" xlink:href="#a"/><use x="205.461557" y="181.153829" xlink:href="#a"/><use x="217.461557" y="181.153829" xlink:href="#a"/><use x="229.461557" y="181.153829" xlink:href="#a"/><use x="241.461557" y="181.153829" xlink:href="#a"/><use x="253.461557" y="181.153829" xlink:href="#a"/><use x="265.461557" y="181.153829" xlink:href="#a"/><use x="277.461557" y="181.153829" xlink:href="#a"/><use x="289.461557" y="181.153829" xlink:href="#a"/><use x="301.461557" y="181.153829" xlink:href="#a"/><use x="313.461557" y="181.153829" xlink:href="#a"/><use x="325.461557" y="181.153829" xlink:href="#a"/><use x="337.461557" y="181.153829" xlink:href="#a"/><use x="373.461557" y="181.153829" xlink:href="#a"/><use x="385.461557" y="181.153829" xlink:href="#a"/><use x="409.461557" y="181.153829" xlink:href="#a"/><use x="433.461557" y="181.153829" xlink:href="#a"/><use x="457.461557" y="181.153829" xlink:href="#a"/><use x="25.461557" y="193.153829" xlink:href="#a"/><use x="73.461557" y="193.153829" xlink:href="#a"/><use x="85.461557" y="193.153829" xlink:href="#a"/><use x="133.461557" y="193.153829" xlink:href="#a"/><use x="169.461557" y="193.153829" xlink:href="#a"/><use x="193.461557" y="193.153829" xlink:href="#a"/><use x="241.461557" y="193.153829" xlink:href="#a"/><use x="253.461557" y="193.153829" xlink:href="#a"/><use x="265.461557" y="193.153829" xlink:href="#a"/><use x="277.461557" y="193.153829" xlink:href="#a"/><use x="289.461557" y="193.153829" xlink:href="#a"/><use x="301.461557" y="193.153829" xlink:href="#a"/><use x="325.461557" y="193.153829" xlink:href="#a"/><use x="337.461557" y="193.153829" xlink:href="#a"/><use x="361.461557" y="193.153829" xlink:href="#a"/><use x="397.461557" y="193.153829" xlink:href="#a"/><use x="409.461557" y="193.153829" xlink:href="#a"/><use x="445.461557" y="193.153829" xlink:href="#a"/><use x="37.461557" y="205.153829" xlink:href="#a"/><use x="49.461557" y="205.153829" xlink:href="#a"/><use x="61.461557" y="205.153829" xlink:href="#a"/><use x="73.461557" y="205.153829" xlink:href="#a"/><use x="97.461557" y="205.153829" xlink:href="#a"/><use x="133.461557" y="205.153829" xlink:href="#a"/><use x="145.461557" y="205.153829" xlink:href="#a"/><use x="193.461557" y="205.153829" xlink:href="#a"/><use x="217.461557" y="205.153829" xlink:href="#a"/><use x="265.461557" y="205.153829" xlink:href="#a"/><use x="277.461557" y="205.153829" xlink:href="#a"/><use x="301.461557" y="205.153829" xlink:href="#a"/><use x="313.461557" y="205.153829" xlink:href="#a"/><use x="349.461557" y="205.153829" xlink:href="#a"/><use x="373.461557" y="205.153829" xlink:href="#a"/><use x="385.461557" y="205.153829" xlink:href="#a"/><use x="421.461557" y="205.153829" xlink:href="#a"/><use x="433.461557" y="205.153829" xlink:href="#a"/><use x="25.461557" y="217.153829" xlink:href="#a"/><use x="37.461557" y="217.153829" xlink:href="#a"/><use x="73.461557" y="217.153829" xlink:href="#a"/><use x="109.461557" y="217.153829" xlink:href="#a"/><use x="145.461557" y="217.153829" xlink:href="#a"/><use x="169.461557" y="217.153829" xlink:href="#a"/><use x="193.461557" y="217.153829" xlink:href="#a"/><use x="205.461557" y="217.153829" xlink:href="#a"/><use x="217.461557" y="217.153829" xlink:href="#a"/><use x="241.461557" y="217.153829" xlink:href="#a"/><use x="253.461557" y="217.153829" xlink:href="#a"/><use x="277.461557" y="217.153829" xlink:href="#a"/><use x="313.461557" y="217.153829" xlink:href="#a"/><use x="337.461557" y="217.153829" xlink:href="#a"/><use x="361.461557" y="217.153829" xlink:href="#a"/><use x="373.461557" y="217.153829" xlink:href="#a"/><use x="385.461557" y="217.153829" xlink:href="#a"/><use x="409.461557" y="217.153829" xlink:href="#a"/><use x="421.461557" y="217.153829" xlink:href="#a"/><use x="433.461557" y="217.153829" xlink:href="#a"/><use x="457.461557" y="217.153829" xlink:href="#a"/><use x="37.461557" y="229.153829" xlink:href="#a"/><use x="49.461557" y="229.153829" xlink:href="#a"/><use x="73.461557" y="229.153829" xlink:href="#a"/><use x="97.461557" y="229.153829" xlink:href="#a"/><use x="109.461557" y="229.153829" xlink:href="#a"/><use x="133.461557" y="229.153829" xlink:href="#a"/><use x="145.461557" y="229.153829" xlink:href="#a"/><use x="169.461557" y="229.153829" xlink:href="#a"/><use x="181.461557" y="229.153829" xlink:href="#a"/><use x="193.461557" y="229.153829" xlink:href="#a"/><use x="229.461557" y="229.153829" xlink:href="#a"/><use x="265.461557" y="229.153829" xlink:href="#a"/><use x="277.461557" y="229.153829" xlink:href="#a"/><use x="325.461557" y="229.153829" xlink:href="#a"/><use x="337.461557" y="229.153829" xlink:href="#a"/><use x="361.461557" y="229.153829" xlink:href="#a"/><use x="385.461557" y="229.153829" xlink:href="#a"/><use x="421.461557" y="229.153829" xlink:href="#a"/><use x="433.461557" y="229.153829" xlink:href="#a"/><use x="445.461557" y="229.153829" xlink:href="#a"/><use x="457.461557" y="229.153829" xlink:href="#a"/><use x="37.461557" y="241.153829" xlink:href="#a"/><use x="49.461557" y="241.153829" xlink:href="#a"/><use x="61.461557" y="241.153829" xlink:href="#a"/><use x="109.461557" y="241.153829" xlink:href="#a"/><use x="121.461557" y="241.153829" xlink:href="#a"/><use x="133.461557" y="241.153829" xlink:href="#a"/><use x="157.461557" y="241.153829" xlink:href="#a"/><use x="193.461557" y="241.153829" xlink:href="#a"/><use x="205.461557" y="241.153829" xlink:href="#a"/><use x="229.461557" y="241.153829" xlink:href="#a"/><use x="253.461557" y="241.153829" xlink:href="#a"/><use x="265.461557" y="241.153829" xlink:href="#a"/><use x="301.461557" y="241.153829" xlink:href="#a"/><use x="313.461557" y="241.153829" xlink:href="#a"/><use x="373.461557" y="241.153829" xlink:href="#a"/><use x="385.461557" y="241.153829" xlink:href="#a"/><use x="397.461557" y="241.153829" xlink:href="#a"/><use x="409.461557" y="241.153829" xlink:href="#a"/><use x="433.461557" y="241.153829" xlink:href="#a"/><use x="457.461557" y="241.153829" xlink:href="#a"/><use x="61.461557" y="253.153829" xlink:href="#a"/><use x="73.461557" y="253.153829" xlink:href="#a"/><use x="97.461557" y="253.153829" xlink:href="#a"/><use x="109.461557" y="253.153829" xlink:href="#a"/><use x="157.461557" y="253.153829" xlink:href="#a"/><use x="181.461557" y="253.153829" xlink:href="#a"/><use x="193.461557" y="253.153829" xlink:href="#a"/><use x="217.461557" y="253.153829" xlink:href="#a"/><use x="277.461557" y="253.153829" xlink:href="#a"/><use x="289.461557" y="253.153829" xlink:href="#a"/><use x="337.461557" y="253.153829" xlink:href="#a"/><use x="349.461557" y="253.153829" xlink:href="#a"/><use x="361.461557" y="253.153829" xlink:href="#a"/><use x="385.461557" y="253.153829" xlink:href="#a"/><use x="397.461557" y="253.153829" xlink:href="#a"/><use x="409.461557" y="253.153829" xlink:href="#a"/><use x="445.461557" y="253.153829" xlink:href="#a"/><use x="85.461557" y="265.153829" xlink:href="#a"/><use x="109.461557" y="265.153829" xlink:href="#a"/><use x="133.461557" y="265.153829" xlink:href="#a"/><use x="157.461557" y="265.153829" xlink:href="#a"/><use x="205.461557" y="265.153829" xlink:href="#a"/><use x="241.461557" y="265.153829" xlink:href="#a"/><use x="277.461557" y="265.153829" xlink:href="#a"/><use x="313.461557" y="265.153829" xlink:href="#a"/><use x="373.461557" y="265.153829" xlink:href="#a"/><use x="385.461557" y="265.153829" xlink:href="#a"/><use x="433.461557" y="265.153829" xlink:href="#a"/><use x="445.461557" y="265.153829" xlink:href="#a"/><use x="37.461557" y="277.153829" xlink:href="#a"/><use x="61.461557" y="277.153829" xlink:href="#a"/><use x="85.461557" y="277.153829" xlink:href="#a"/><use x="97.461557" y="277.153829" xlink:href="#a"/><use x="169.461557" y="277.153829" xlink:href="#a"/><use x="193.461557" y="277.153829" xlink:href="#a"/><use x="205.461557" y="277.153829" xlink:href="#a"/><use x="217.461557" y="277.153829" xlink:href="#a"/><use x="229.461557" y="277.153829" xlink:href="#a"/><use x="241.461557" y="277.153829" xlink:href="#a"/><use x="289.461557" y="277.153829" xlink:href="#a"/><use x="313.461557" y="277.153829" xlink:href="#a"/><use x="325.461557" y="277.153829" xlink:href="#a"/><use x="337.461557" y="277.153829" xlink:href="#a"/><use x="361.461557" y="277.153829" xlink:href="#a"/><use x="397.461557" y="277.153829" xlink:href="#a"/><use x="409.461557" y="277.153829" xlink:href="#a"/><use x="421.461557" y="277.153829" xlink:href="#a"/><use x="433.461557" y="277.153829" xlink:href="#a"/><use x="445.461557" y="277.153829" xlink:href="#a"/><use x="457.461557" y="277.153829" xlink:href="#a"/><use x="61.461557" y="289.153829" xlink:href="#a"/><use x="73.461557" y="289.153829" xlink:href="#a"/><use x="85.461557" y="289.153829" xlink:href="#a"/><use x="157.461557" y="289.153829" xlink:href="#a"/><use x="169.461557" y="289.153829" xlink:href="#a"/><use x="193.461557" y="289.153829" xlink:href="#a"/><use x="205.461557" y="289.153829" xlink:href="#a"/><use x="217.461557" y="289.153829" xlink:href="#a"/><use x="241.461557" y="289.153829" xlink:href="#a"/><use x="253.461557" y="289.153829" xlink:href="#a"/><use x="265.461557" y="289.153829" xlink:href="#a"/><use x="289.461557" y="289.153829" xlink:href="#a"/><use x="325.461557" y="289.153829" xlink:href="#a"/><use x="361.461557" y="289.153829" xlink:href="#a"/><use x="373.461557" y="289.153829" xlink:href="#a"/><use x="409.461557" y="289.153829" xlink:href="#a"/><use x="445.461557" y="289.153829" xlink:href="#a"/><use x="457.461557" y="289.153829" xlink:href="#a"/><use x="97.461557" y="301.153829" xlink:href="#a"/><use x="121.461557" y="301.153829" xlink:href="#a"/><use x="157.461557" y="301.153829" xlink:href="#a"/><use x="181.461557" y="301.153829" xlink:href="#a"/><use x="205.461557" y="301.153829" xlink:href="#a"/><use x="229.461557" y="301.153829" xlink:href="#a"/><use x="253.461557" y="301.153829" xlink:href="#a"/><use x="289.461557" y="301.153829" xlink:href="#a"/><use x="301.461557" y="301.153829" xlink:href="#a"/><use x="313.461557" y="301.153829" xlink:href="#a"/><use x="325.461557" y="301.153829" xlink:href="#a"/><use x="349.461557" y="301.153829" xlink:href="#a"/><use x="373.461557" y="301.153829" xlink:href="#a"/><use x="385.461557" y="301.153829" xlink:href="#a"/><use x="445.461557" y="301.153829" xlink:href="#a"/><use x="37.461557" y="313.153829" xlink:href="#a"/><use x="61.461557" y="313.153829" xlink:href="#a"/><use x="109.461557" y="313.153829" xlink:href="#a"/><use x="157.461557" y="313.153829" xlink:href="#a"/><use x="169.461557" y="313.153829" xlink:href="#a"/><use x="181.461557" y="313.153829" xlink:href="#a"/><use x="193.461557" y="313.153829" xlink:href="#a"/><use x="217.461557" y="313.153829" xlink:href="#a"/><use x="229.461557" y="313.153829" xlink:href="#a"/><use x="241.461557" y="313.153829" xlink:href="#a"/><use x="277.461557" y="313.153829" xlink:href="#a"/><use x="289.461557" y="313.153829" xlink:href="#a"/><use x="301.461557" y="313.153829" xlink:href="#a"/><use x="313.461557" y="313.153829" xlink:href="#a"/><use x="337.461557" y="313.153829" xlink:href="#a"/><use x="361.461557" y="313.153829" xlink:href="#a"/><use x="373.461557" y="313.153829" xlink:href="#a"/><use x="385.461557" y="313.153829" xlink:href="#a"/><use x="397.461557" y="313.153829" xlink:href="#a"/><use x="433.461557" y="313.153829" xlink:href="#a"/><use x="457.461557" y="313.153829" xlink:href="#a"/><use x="25.461557" y="325.153829" xlink:href="#a"/><use x="49.461557" y="325.153829" xlink:href="#a"/><use x="61.461557" y="325.153829" xlink:href="#a"/><use x="97.461557" y="325.153829" xlink:href="#a"/><use x="121.461557" y="325.153829" xlink:href="#a"/><use x="133.461557" y="325.153829" xlink:href="#a"/><use x="145.461557" y="325.153829" xlink:href="#a"/><use x="169.461557" y="325.153829" xlink:href="#a"/><use x="181.461557" y="325.153829" xlink:href="#a"/><use x="193.461557" y="325.153829" xlink:href="#a"/><use x="217.461557" y="325.153829" xlink:href="#a"/><use x="229.461557" y="325.153829" xlink:href="#a"/><use x="253.461557" y="325.153829" xlink:href="#a"/><use x="265.461557" y="325.153829" xlink:href="#a"/><use x="289.461557" y="325.153829" xlink:href="#a"/><use x="313.461557" y="325.153829" xlink:href="#a"/><use x="337.461557" y="325.153829" xlink:href="#a"/><use x="373.461557" y="325.153829" xlink:href="#a"/><use x="409.461557" y="325.153829" xlink:href="#a"/><use x="433.461557" y="325.153829" xlink:href="#a"/><use x="457.461557" y="325.153829" xlink:href="#a"/><use x="37.461557" y="337.153829" xlink:href="#a"/><use x="49.461557" y="337.153829" xlink:href="#a"/><use x="85.461557" y="337.153829" xlink:href="#a"/><use x="109.461557" y="337.153829" xlink:href="#a"/><use x="121.461557" y="337.153829" xlink:href="#a"/><use x="133.461557" y="337.153829" xlink:href="#a"/><use x="145.461557" y="337.153829" xlink:href="#a"/><use x="169.461557" y="337.153829" xlink:href="#a"/><use x="193.461557" y="337.153829" xlink:href="#a"/><use x="205.461557" y="337.153829" xlink:href="#a"/><use x="217.461557" y="337.153829" xlink:href="#a"/><use x="229.461557" y="337.153829" xlink:href="#a"/><use x="241.461557" y="337.153829" xlink:href="#a"/><use x="253.461557" y="337.153829" xlink:href="#a"/><use x="313.461557" y="337.153829" xlink:href="#a"/><use x="325.461557" y="337.153829" xlink:href="#a"/><use x="337.461557" y="337.153829" xlink:href="#a"/><use x="349.461557" y="337.153829" xlink:href="#a"/><use x="373.461557" y="337.153829" xlink:href="#a"/><use x="385.461557" y="337.153829" xlink:href="#a"/><use x="397.461557" y="337.153829" xlink:href="#a"/><use x="457.461557" y="337.153829" xlink:href="#a"/><use x="25.461557" y="349.153829" xlink:href="#a"/><use x="37.461557" y="349.153829" xlink:href="#a"/><use x="49.461557" y="349.153829" xlink:href="#a"/><use x="61.461557" y="349.153829" xlink:href="#a"/><use x="73.461557" y="349.153829" xlink:href="#a"/><use x="97.461557" y="349.153829" xlink:href="#a"/><use x="133.461557" y="349.153829" xlink:href="#a"/><use x="145.461557" y="349.153829" xlink:href="#a"/><use x="157.461557" y="349.153829" xlink:href="#a"/><use x="169.461557" y="349.153829" xlink:href="#a"/><use x="205.461557" y="349.153829" xlink:href="#a"/><use x="217.461557" y="349.153829" xlink:href="#a"/><use x="241.461557" y="349.153829" xlink:href="#a"/><use x="265.461557" y="349.153829" xlink:href="#a"/><use x="289.461557" y="349.153829" xlink:href="#a"/><use x="301.461557" y="349.153829" xlink:href="#a"/><use x="313.461557" y="349.153829" xlink:href="#a"/><use x="361.461557" y="349.153829" xlink:href="#a"/><use x="373.461557" y="349.153829" xlink:href="#a"/><use x="385.461557" y="349.153829" xlink:href="#a"/><use x="397.461557" y="349.153829" xlink:href="#a"/><use x="409.461557" y="349.153829" xlink:href="#a"/><use x="421.461557" y="349.153829" xlink:href="#a"/><use x="433.461557" y="349.153829" xlink:href="#a"/><use x="445.461557" y="349.153829" xlink:href="#a"/><use x="121.461557" y="361.153829" xlink:href="#a"/><use x="133.461557" y="361.153829" xlink:href="#a"/><use x="169.461557" y="361.153829" xlink:href="#a"/><use x="181.461557" y="361.153829" xlink:href="#a"/><use x="205.461557" y="361.153829" xlink:href="#a"/><use x="229.461557" y="361.153829" xlink:href="#a"/><use x="277.461557" y="361.153829" xlink:href="#a"/><use x="289.461557" y="361.153829" xlink:href="#a"/><use x="313.461557" y="361.153829" xlink:href="#a"/><use x="337.461557" y="361.153829" xlink:href="#a"/><use x="361.461557" y="361.153829" xlink:href="#a"/><use x="409.461557" y="361.153829" xlink:href="#a"/><use x="445.461557" y="361.153829" xlink:href="#a"/><use x="457.461557" y="361.153829" xlink:href="#a"/><use x="25.461557" y="373.153829" xlink:href="#a"/><use x="37.461557" y="373.153829" xlink:href="#a"/><use x="49.461557" y="373.153829" xlink:href="#a"/><use x="61.461557" y="373.153829" xlink:href="#a"/><use x="73.461557" y="373.153829" xlink:href="#a"/><use x="85.461557" y="373.153829" xlink:href="#a"/><use x="97.461557" y="373.153829" xlink:href="#a"/><use x="181.461557" y="373.153829" xlink:href="#a"/><use x="217.461557" y="373.153829" xlink:href="#a"/><use x="253.461557" y="373.153829" xlink:href="#a"/><use x="361.461557" y="373.153829" xlink:href="#a"/><use x="385.461557" y="373.153829" xlink:href="#a"/><use x="409.461557" y="373.153829" xlink:href="#a"/><use x="433.461557" y="373.153829" xlink:href="#a"/><use x="445.461557" y="373.153829" xlink:href="#a"/><use x="457.461557" y="373.153829" xlink:href="#a"/><use x="25.461557" y="385.153829" xlink:href="#a"/><use x="97.461557" y="385.153829" xlink:href="#a"/><use x="145.461557" y="385.153829" xlink:href="#a"/><use x="157.461557" y="385.153829" xlink:href="#a"/><use x="169.461557" y="385.153829" xlink:href="#a"/><use x="205.461557" y="385.153829" xlink:href="#a"/><use x="217.461557" y="385.153829" xlink:href="#a"/><use x="241.461557" y="385.153829" xlink:href="#a"/><use x="277.461557" y="385.153829" xlink:href="#a"/><use x="289.461557" y="385.153829" xlink:href="#a"/><use x="301.461557" y="385.153829" xlink:href="#a"/><use x="313.461557" y="385.153829" xlink:href="#a"/><use x="337.461557" y="385.153829" xlink:href="#a"/><use x="361.461557" y="385.153829" xlink:href="#a"/><use x="409.461557" y="385.153829" xlink:href="#a"/><use x="433.461557" y="385.153829" xlink:href="#a"/><use x="25.461557" y="397.153829" xlink:href="#a"/><use x="49.461557" y="397.153829" xlink:href="#a"/><use x="61.461557" y="397.153829" xlink:href="#a"/><use x="73.461557" y="397.153829" xlink:href="#a"/><use x="97.461557" y="397.153829" xlink:href="#a"/><use x="145.461557" y="397.153829" xlink:href="#a"/><use x="157.461557" y="397.153829" xlink:href="#a"/><use x="169.461557" y="397.153829" xlink:href="#a"/><use x="181.461557" y="397.153829" xlink:href="#a"/><use x="205.461557" y="397.153829" xlink:href="#a"/><use x="217.461557" y="397.153829" xlink:href="#a"/><use x="253.461557" y="397.153829" xlink:href="#a"/><use x="265.461557" y="397.153829" xlink:href="#a"/><use x="313.461557" y="397.153829" xlink:href="#a"/><use x="325.461557" y="397.153829" xlink:href="#a"/><use x="361.461557" y="397.153829" xlink:href="#a"/><use x="373.461557" y="397.153829" xlink:href="#a"/><use x="385.461557" y="397.153829" xlink:href="#a"/><use x="397.461557" y="397.153829" xlink:href="#a"/><use x="409.461557" y="397.153829" xlink:href="#a"/><use x="421.461557" y="397.153829" xlink:href="#a"/><use x="445.461557" y="397.153829" xlink:href="#a"/><use x="25.461557" y="409.153829" xlink:href="#a"/><use x="49.461557" y="409.153829" xlink:href="#a"/><use x="61.461557" y="409.153829" xlink:href="#a"/><use x="73.461557" y="409.153829" xlink:href="#a"/><use x="97.461557" y="409.153829" xlink:href="#a"/><use x="121.461557" y="409.153829" xlink:href="#a"/><use x="157.461557" y="409.153829" xlink:href="#a"/><use x="169.461557" y="409.153829" xlink:href="#a"/><use x="181.461557" y="409.153829" xlink:href="#a"/><use x="229.461557" y="409.153829" xlink:href="#a"/><use x="253.461557" y="409.153829" xlink:href="#a"/><use x="265.461557" y="409.153829" xlink:href="#a"/><use x="277.461557" y="409.153829" xlink:href="#a"/><use x="301.461557" y="409.153829" xlink:href="#a"/><use x="325.461557" y="409.153829" xlink:href="#a"/><use x="349.461557" y="409.153829" xlink:href="#a"/><use x="373.461557" y="409.153829" xlink:href="#a"/><use x="409.461557" y="409.153829" xlink:href="#a"/><use x="433.461557" y="409.153829" xlink:href="#a"/><use x="445.461557" y="409.153829" xlink:href="#a"/><use x="457.461557" y="409.153829" xlink:href="#a"/><use x="25.461557" y="421.153829" xlink:href="#a"/><use x="49.461557" y="421.153829" xlink:href="#a"/><use x="61.461557" y="421.153829" xlink:href="#a"/><use x="73.461557" y="421.153829" xlink:href="#a"/><use x="97.461557" y="421.153829" xlink:href="#a"/><use x="145.461557" y="421.153829" xlink:href="#a"/><use x="157.461557" y="421.153829" xlink:href="#a"/><use x="169.461557" y="421.153829" xlink:href="#a"/><use x="181.461557" y="421.153829" xlink:href="#a"/><use x="217.461557" y="421.153829" xlink:href="#a"/><use x="277.461557" y="421.153829" xlink:href="#a"/><use x="313.461557" y="421.153829" xlink:href="#a"/><use x="325.461557" y="421.153829" xlink:href="#a"/><use x="361.461557" y="421.153829" xlink:href="#a"/><use x="409.461557" y="421.153829" xlink:href="#a"/><use x="433.461557" y="421.153829" xlink:href="#a"/><use x="457.461557" y="421.153829" xlink:href="#a"/><use x="25.461557" y="433.153829" xlink:href="#a"/><use x="97.461557" y="433.153829" xlink:href="#a"/><use x="133.461557" y="433.153829" xlink:href="#a"/><use x="145.461557" y="433.153829" xlink:href="#a"/><use x="181.461557" y="433.153829" xlink:href="#a"/><use x="217.461557" y="433.153829" xlink:href="#a"/><use x="229.461557" y="433.153829" xlink:href="#a"/><use x="241.461557" y="433.153829" xlink:href="#a"/><use x="265.461557" y="433.153829" xlink:href="#a"/><use x="277.461557" y="433.153829" xlink:href="#a"/><use x="313.461557" y="433.153829" xlink:href="#a"/><use x="325.461557" y="433.153829" xlink:href="#a"/><use x="349.461557" y="433.153829" xlink:href="#a"/><use x="361.461557" y="433.153829" xlink:href="#a"/><use x="397.461557" y="433.153829" xlink:href="#a"/><use x="421.461557" y="433.153829" xlink:href="#a"/><use x="25.461557" y="445.153829" xlink:href="#a"/><use x="37.461557" y="445.153829" xlink:href="#a"/><use x="49.461557" y="445.153829" xlink:href="#a"/><use x="61.461557" y="445.153829" xlink:href="#a"/><use x="73.461557" y="445.153829" xlink:href="#a"/><use x="85.461557" y="445.153829" xlink:href="#a"/><use x="97.461557" y="445.153829" xlink:href="#a"/><use x="133.461557" y="445.153829" xlink:href="#a"/><use x="145.461557" y="445.153829" xlink:href="#a"/><use x="157.461557" y="445.153829" xlink:href="#a"/><use x="193.461557" y="445.153829" xlink:href="#a"/><use x="205.461557" y="445.153829" xlink:href="#a"/><use x="229.461557" y="445.153829" xlink:href="#a"/><use x="265.461557" y="445.153829" xlink:href="#a"/><use x="313.461557" y="445.153829" xlink:href="#a"/><use x="325.461557" y="445.153829" xlink:href="#a"/><use x="337.461557" y="445.153829" xlink:href="#a"/><use x="361.461557" y="445.153829" xlink:href="#a"/><use x="373.461557" y="445.153829" xlink:href="#a"/><use x="385.461557" y="445.153829" xlink:href="#a"/><use x="397.461557" y="445.153829" xlink:href="#a"/><use x="409.461557" y="445.153829" xlink:href="#a"/><use x="445.461557" y="445.153829" xlink:href="#a"/><use x="457.461557" y="445.153829" xlink:href="#a"/><text x="340.403203" y="521.379938" fill-opacity="null" stroke="null" stroke-opacity="null" stroke-width="0" font-family="Helvetica, Arial, sans-serif" font-size="10" transform="matrix(9.12446 0 0 8.51416 -3047.14775 -3897.9486)">MatNoble</text></g></svg>