<svg xmlns="http://www.w3.org/2000/svg" xmlns:ns1="http://www.iki.fi/pav/software/textext/" xmlns:osb="http://www.openswatchbook.org/uri/2009/osb" xmlns:xlink="http://www.w3.org/1999/xlink" width="300mm" height="90mm" viewBox="0 0 300 90"><defs><linearGradient osb:paint="solid" id="c"><stop offset="0" style="stop-color:#000;stop-opacity:.12156863"/></linearGradient><linearGradient osb:paint="solid" id="b"><stop offset="0" style="stop-color:#000;stop-opacity:1"/></linearGradient><linearGradient osb:paint="solid" id="a"><stop offset="0" style="stop-color:#000;stop-opacity:1"/></linearGradient><linearGradient xlink:href="#a" id="j" x1="37.685" x2="82.685" y1="248.575" y2="248.575" gradientTransform="translate(164.372 -64.69)scale(.85172)" gradientUnits="userSpaceOnUse"/><linearGradient xlink:href="#b" id="l" x1="102.899" x2="181.476" y1="238.201" y2="238.201" gradientTransform="matrix(.56436 0 0 .7977 67.553 66.617)" gradientUnits="userSpaceOnUse"/><linearGradient xlink:href="#c" id="k" x1="102.766" x2="181.608" y1="238.201" y2="238.201" gradientTransform="matrix(.56436 0 0 .7977 67.553 66.617)" gradientUnits="userSpaceOnUse"/><linearGradient xlink:href="#b" id="m" x1="37.685" x2="82.685" y1="248.575" y2="248.575" gradientTransform="translate(187.907 11.635)scale(.98551)" gradientUnits="userSpaceOnUse"/><marker id="h" orient="auto" refX="0" refY="0" style="overflow:visible"><path d="M8.719 4.034-2.207.016 8.719-4.002c-1.746 2.372-1.736 5.618 0 8.036z" style="fill:#000;fill-opacity:1;fill-rule:evenodd;stroke:#000;stroke-width:.625;stroke-linejoin:round;stroke-opacity:1" transform="translate(-1.1)scale(-1.1)"/></marker><marker id="i" orient="auto" refX="0" refY="0" style="overflow:visible"><path d="M8.719 4.034-2.207.016 8.719-4.002c-1.746 2.372-1.736 5.618 0 8.036z" style="fill:#000;fill-opacity:1;fill-rule:evenodd;stroke:#000;stroke-width:.625;stroke-linejoin:round;stroke-opacity:1" transform="translate(-1.1)scale(-1.1)"/></marker><marker id="g" orient="auto" refX="0" refY="0" style="overflow:visible"><path d="M8.719 4.034-2.207.016 8.719-4.002c-1.746 2.372-1.736 5.618 0 8.036z" style="fill:#000;fill-opacity:1;fill-rule:evenodd;stroke:#000;stroke-width:.625;stroke-linejoin:round;stroke-opacity:1" transform="translate(-1.1)scale(-1.1)"/></marker><marker id="f" orient="auto" refX="0" refY="0" style="overflow:visible"><path d="M8.719 4.034-2.207.016 8.719-4.002c-1.746 2.372-1.736 5.618 0 8.036z" style="fill:#000;fill-opacity:1;fill-rule:evenodd;stroke:#000;stroke-width:.625;stroke-linejoin:round;stroke-opacity:1" transform="translate(-1.1)scale(-1.1)"/></marker><marker id="d" orient="auto" refX="0" refY="0" style="overflow:visible"><path d="M8.719 4.034-2.207.016 8.719-4.002c-1.746 2.372-1.736 5.618 0 8.036z" style="fill:#000;fill-opacity:1;fill-rule:evenodd;stroke:#000;stroke-width:.625;stroke-linejoin:round;stroke-opacity:1" transform="translate(-1.1)scale(-1.1)"/></marker><marker id="e" orient="auto" refX="0" refY="0" style="overflow:visible"><path d="M8.719 4.034-2.207.016 8.719-4.002c-1.746 2.372-1.736 5.618 0 8.036z" style="fill:#000;fill-opacity:1;fill-rule:evenodd;stroke:#000;stroke-width:.625;stroke-linejoin:round;stroke-opacity:1" transform="translate(-1.1)scale(-1.1)"/></marker></defs><g style="display:inline" transform="translate(0 -207)"><path d="M2.47 256.848h94.079" style="fill:none;stroke:#000;stroke-width:.5;stroke-linecap:butt;stroke-linejoin:miter;stroke-miterlimit:4;stroke-dasharray:none;stroke-opacity:1;marker-end:url(#d)"/><path d="M47.906 293.835v-79.75" style="fill:none;stroke:#000;stroke-width:.5;stroke-linecap:butt;stroke-linejoin:miter;stroke-miterlimit:4;stroke-dasharray:none;stroke-opacity:1;marker-end:url(#e)"/><path d="M102.471 256.711h94.08" style="fill:none;stroke:#000;stroke-width:.5;stroke-linecap:butt;stroke-linejoin:miter;stroke-miterlimit:4;stroke-dasharray:none;stroke-opacity:1;marker-end:url(#f)"/><path d="M147.907 293.698v-79.75" style="fill:none;stroke:#000;stroke-width:.5;stroke-linecap:butt;stroke-linejoin:miter;stroke-miterlimit:4;stroke-dasharray:none;stroke-opacity:1;marker-end:url(#g)"/><path d="M202.014 256.923h94.08" style="fill:none;stroke:#000;stroke-width:.5;stroke-linecap:butt;stroke-linejoin:miter;stroke-miterlimit:4;stroke-dasharray:none;stroke-opacity:1;marker-end:url(#h)"/><path d="M247.45 293.909v-79.75" style="fill:none;stroke:#000;stroke-width:.5;stroke-linecap:butt;stroke-linejoin:miter;stroke-miterlimit:4;stroke-dasharray:none;stroke-opacity:1;marker-end:url(#i)"/><path d="M196.469 127.863h38.328v38.328h-38.328z" style="opacity:1;fill:#000;fill-opacity:.09615383;fill-rule:evenodd;stroke:url(#j);stroke-width:.56337976;stroke-miterlimit:4;stroke-dasharray:none;stroke-dashoffset:0;paint-order:fill markers stroke" transform="rotate(45.117)"/><ellipse cx="139.863" cy="248.95" rx="13.096" ry="12.963" style="opacity:.35100002;fill:#000;fill-opacity:.00480772;fill-rule:evenodd;stroke-width:.26458332;stroke-linejoin:bevel;stroke-miterlimit:4;stroke-dasharray:none;stroke-dashoffset:0;paint-order:fill markers stroke"/><ellipse cx="146.411" cy="247.881" rx="4.41" ry="3.875" style="opacity:.35100002;fill:#000;fill-opacity:.00480772;fill-rule:evenodd;stroke-width:.26458332;stroke-linejoin:bevel;stroke-miterlimit:4;stroke-dasharray:none;stroke-dashoffset:0;paint-order:fill markers stroke"/><ellipse cx="133.047" cy="237.056" rx="2.272" ry="9.622" style="opacity:.35100002;fill:#000;fill-opacity:.00480772;fill-rule:evenodd;stroke-width:.26458332;stroke-linejoin:bevel;stroke-miterlimit:4;stroke-dasharray:none;stroke-dashoffset:0;paint-order:fill markers stroke"/><circle cx="147.797" cy="256.629" r="22.173" style="opacity:1;fill:url(#k);fill-opacity:1;fill-rule:evenodd;stroke:url(#l);stroke-width:.65444803;stroke-linejoin:bevel;stroke-miterlimit:4;stroke-dasharray:none;stroke-dashoffset:0;paint-order:fill markers stroke"/><path d="M225.046 234.435h44.348v44.348h-44.348z" style="opacity:1;fill:#000;fill-opacity:.09615383;fill-rule:evenodd;stroke:url(#m);stroke-width:.65187633;stroke-miterlimit:4;stroke-dasharray:none;stroke-dashoffset:0;paint-order:fill markers stroke"/></g><g style="display:inline"><g ns1:alignment="middle center" ns1:jacobian_sqrt=".353" ns1:pdfconverter="pdf2svg" ns1:preamble="/home/ross/.config/inkscape/extensions/textext/default_packages.tex" ns1:scale="1" ns1:texconverter="pdflatex" ns1:text="$$\n\\lVert \\mathrm{x} \\rVert_1 = 1\n$$\n" ns1:version="0.11.0"><g style="fill:#000;fill-opacity:1"><path d="M1.719-7.14c0-.157 0-.344-.203-.344s-.203.234-.203.375v9.234c0 .156 0 .375.203.375s.203-.187.203-.344Zm1.937.03c0-.156 0-.374-.203-.374-.187 0-.187.187-.187.343v9.297c0 .156 0 .344.187.344.203 0 .203-.234.203-.375Zm0 0" style="stroke:none;stroke-width:0" transform="matrix(1.07 0 0 1.26134 54.509 16.847)"/></g><g style="fill:#000;fill-opacity:1"><path d="M2.86-2.344c.296-.375.671-.86.921-1.125.313-.36.719-.515 1.188-.515v-.313c-.266.016-.563.031-.828.031-.297 0-.828-.015-.953-.03v.312c.218.015.296.14.296.312 0 .156-.109.281-.156.344l-.61.781-.78-1.015c-.094-.094-.094-.11-.094-.172 0-.157.156-.25.343-.25v-.313c-.25.016-.906.031-1.078.031-.203 0-.671-.015-.937-.03v.312c.703 0 .703 0 1.172.609l.984 1.281-.937 1.188a1.57 1.57 0 0 1-1.266.594V0c.25-.016.563-.031.828-.031.281 0 .703.015.938.031v-.312c-.22-.032-.282-.157-.282-.313 0-.219.282-.547.891-1.266l.766 1c.078.11.203.266.203.329 0 .093-.094.25-.36.25V0c.297-.016.86-.031 1.079-.031.265 0 .656.015.953.031v-.312c-.532 0-.72-.016-.938-.313zm0 0" style="stroke:none;stroke-width:0" transform="matrix(1.07 0 0 1.26134 59.84 16.847)"/></g><g style="fill:#000;fill-opacity:1"><path d="M1.719-7.14c0-.157 0-.344-.203-.344s-.203.234-.203.375v9.234c0 .156 0 .375.203.375s.203-.187.203-.344Zm1.937.03c0-.156 0-.374-.203-.374-.187 0-.187.187-.187.343v9.297c0 .156 0 .344.187.344.203 0 .203-.234.203-.375Zm0 0" style="stroke:none;stroke-width:0" transform="matrix(1.07 0 0 1.26134 65.465 16.847)"/></g><g style="fill:#000;fill-opacity:1"><path d="M2.328-4.437c0-.188 0-.188-.203-.188-.453.438-1.078.438-1.36.438v.25c.157 0 .626 0 1-.188v3.547c0 .234 0 .328-.687.328H.812V0c.125 0 .985-.031 1.235-.031.219 0 1.094.031 1.25.031v-.25H3.03c-.703 0-.703-.094-.703-.328zm0 0" style="stroke:none;stroke-width:0" transform="matrix(1.07 0 0 1.26134 70.795 18.732)"/></g><g style="fill:#000;fill-opacity:1"><path d="M6.844-3.266c.156 0 .343 0 .343-.187 0-.203-.187-.203-.328-.203H.891c-.141 0-.328 0-.328.203 0 .187.187.187.328.187zm.015 1.938c.141 0 .329 0 .329-.203 0-.188-.188-.188-.344-.188H.89c-.141 0-.328 0-.328.188 0 .203.187.203.328.203zm0 0" style="stroke:none;stroke-width:0" transform="matrix(1.07 0 0 1.26134 78.539 16.847)"/></g><g style="fill:#000;fill-opacity:1"><path d="M2.938-6.375c0-.25 0-.266-.235-.266C2.078-6 1.203-6 .891-6v.313c.203 0 .78 0 1.297-.266v5.172c0 .36-.032.469-.922.469H.953V0c.344-.031 1.203-.031 1.61-.031.39 0 1.265 0 1.609.031v-.312h-.313c-.906 0-.921-.11-.921-.47zm0 0" style="stroke:none;stroke-width:0" transform="matrix(1.07 0 0 1.26134 89.793 16.847)"/></g></g><g ns1:alignment="middle center" ns1:jacobian_sqrt=".353" ns1:pdfconverter="pdf2svg" ns1:preamble="/home/ross/.config/inkscape/extensions/textext/default_packages.tex" ns1:scale="1" ns1:texconverter="pdflatex" ns1:text="$$\n\\lVert \\mathrm{x} \\rVert_2 = 1\n$$\n" ns1:version="0.11.0"><g style="fill:#000;fill-opacity:1"><path d="M1.719-7.14c0-.157 0-.344-.203-.344s-.203.234-.203.375v9.234c0 .156 0 .375.203.375s.203-.187.203-.344Zm1.937.03c0-.156 0-.374-.203-.374-.187 0-.187.187-.187.343v9.297c0 .156 0 .344.187.344.203 0 .203-.234.203-.375Zm0 0" style="stroke:none;stroke-width:0" transform="matrix(1.08055 0 0 1.26134 155.112 17.15)"/></g><g style="fill:#000;fill-opacity:1"><path d="M2.86-2.344c.296-.375.671-.86.921-1.125.313-.36.719-.515 1.188-.515v-.313c-.266.016-.563.031-.828.031-.297 0-.828-.015-.953-.03v.312c.218.015.296.14.296.312 0 .156-.109.281-.156.344l-.61.781-.78-1.015c-.094-.094-.094-.11-.094-.172 0-.157.156-.25.343-.25v-.313c-.25.016-.906.031-1.078.031-.203 0-.671-.015-.937-.03v.312c.703 0 .703 0 1.172.609l.984 1.281-.937 1.188a1.57 1.57 0 0 1-1.266.594V0c.25-.016.563-.031.828-.031.281 0 .703.015.938.031v-.312c-.22-.032-.282-.157-.282-.313 0-.219.282-.547.891-1.266l.766 1c.078.11.203.266.203.329 0 .093-.094.25-.36.25V0c.297-.016.86-.031 1.079-.031.265 0 .656.015.953.031v-.312c-.532 0-.72-.016-.938-.313zm0 0" style="stroke:none;stroke-width:0" transform="matrix(1.08055 0 0 1.26134 160.495 17.15)"/></g><g style="fill:#000;fill-opacity:1"><path d="M1.719-7.14c0-.157 0-.344-.203-.344s-.203.234-.203.375v9.234c0 .156 0 .375.203.375s.203-.187.203-.344Zm1.937.03c0-.156 0-.374-.203-.374-.187 0-.187.187-.187.343v9.297c0 .156 0 .344.187.344.203 0 .203-.234.203-.375Zm0 0" style="stroke:none;stroke-width:0" transform="matrix(1.08055 0 0 1.26134 166.177 17.15)"/></g><g style="fill:#000;fill-opacity:1"><path d="M3.516-1.266H3.28c-.015.157-.094.563-.187.625-.047.047-.578.047-.688.047H1.125c.734-.64.984-.843 1.39-1.172.516-.406 1-.843 1-1.5 0-.843-.734-1.359-1.624-1.359-.86 0-1.453.61-1.453 1.25 0 .344.296.39.375.39.156 0 .359-.124.359-.374 0-.125-.047-.375-.406-.375.218-.485.687-.641 1.015-.641.703 0 1.063.547 1.063 1.11 0 .609-.438 1.078-.656 1.328L.516-.266C.437-.203.437-.187.437 0h2.876zm0 0" style="stroke:none;stroke-width:0" transform="matrix(1.08055 0 0 1.26134 171.559 19.034)"/></g><g style="fill:#000;fill-opacity:1"><path d="M6.844-3.266c.156 0 .343 0 .343-.187 0-.203-.187-.203-.328-.203H.891c-.141 0-.328 0-.328.203 0 .187.187.187.328.187zm.015 1.938c.141 0 .329 0 .329-.203 0-.188-.188-.188-.344-.188H.89c-.141 0-.328 0-.328.188 0 .203.187.203.328.203zm0 0" style="stroke:none;stroke-width:0" transform="matrix(1.08055 0 0 1.26134 179.379 17.15)"/></g><g style="fill:#000;fill-opacity:1"><path d="M2.938-6.375c0-.25 0-.266-.235-.266C2.078-6 1.203-6 .891-6v.313c.203 0 .78 0 1.297-.266v5.172c0 .36-.032.469-.922.469H.953V0c.344-.031 1.203-.031 1.61-.031.39 0 1.265 0 1.609.031v-.312h-.313c-.906 0-.921-.11-.921-.47zm0 0" style="stroke:none;stroke-width:0" transform="matrix(1.08055 0 0 1.26134 190.745 17.15)"/></g></g><g ns1:alignment="middle center" ns1:jacobian_sqrt=".353" ns1:pdfconverter="pdf2svg" ns1:preamble="/home/ross/.config/inkscape/extensions/textext/default_packages.tex" ns1:scale="1" ns1:texconverter="pdflatex" ns1:text="$$\n\\lVert \\mathrm{x} \\rVert_{\\infty} = 1\n$$\n" ns1:version="0.11.0"><g style="fill:#000;fill-opacity:1"><path d="M1.719-7.14c0-.157 0-.344-.203-.344s-.203.234-.203.375v9.234c0 .156 0 .375.203.375s.203-.187.203-.344Zm1.937.03c0-.156 0-.374-.203-.374-.187 0-.187.187-.187.343v9.297c0 .156 0 .344.187.344.203 0 .203-.234.203-.375Zm0 0" style="stroke:none;stroke-width:0" transform="matrix(.99845 0 0 1.22348 253.927 16.488)"/></g><g style="fill:#000;fill-opacity:1"><path d="M2.86-2.344c.296-.375.671-.86.921-1.125.313-.36.719-.515 1.188-.515v-.313c-.266.016-.563.031-.828.031-.297 0-.828-.015-.953-.03v.312c.218.015.296.14.296.312 0 .156-.109.281-.156.344l-.61.781-.78-1.015c-.094-.094-.094-.11-.094-.172 0-.157.156-.25.343-.25v-.313c-.25.016-.906.031-1.078.031-.203 0-.671-.015-.937-.03v.312c.703 0 .703 0 1.172.609l.984 1.281-.937 1.188a1.57 1.57 0 0 1-1.266.594V0c.25-.016.563-.031.828-.031.281 0 .703.015.938.031v-.312c-.22-.032-.282-.157-.282-.313 0-.219.282-.547.891-1.266l.766 1c.078.11.203.266.203.329 0 .093-.094.25-.36.25V0c.297-.016.86-.031 1.079-.031.265 0 .656.015.953.031v-.312c-.532 0-.72-.016-.938-.313zm0 0" style="stroke:none;stroke-width:0" transform="matrix(.99845 0 0 1.22348 258.9 16.488)"/></g><g style="fill:#000;fill-opacity:1"><path d="M1.719-7.14c0-.157 0-.344-.203-.344s-.203.234-.203.375v9.234c0 .156 0 .375.203.375s.203-.187.203-.344Zm1.937.03c0-.156 0-.374-.203-.374-.187 0-.187.187-.187.343v9.297c0 .156 0 .344.187.344.203 0 .203-.234.203-.375Zm0 0" style="stroke:none;stroke-width:0" transform="matrix(.99845 0 0 1.22348 264.15 16.488)"/></g><g style="fill:#000;fill-opacity:1"><path d="M4.031-1.906c-.375-.438-.484-.547-.75-.735a2.13 2.13 0 0 0-1.25-.437c-.875 0-1.5.75-1.5 1.578C.531-.687 1.141.063 2 .063c.969 0 1.656-.782 1.906-1.157.36.438.485.547.735.735.437.312.875.422 1.265.422.86 0 1.485-.735 1.485-1.563s-.594-1.578-1.47-1.578c-.968 0-1.64.797-1.89 1.172m.219.25c.281-.453.89-1.156 1.734-1.156.72 0 1.22.64 1.22 1.312 0 .656-.548 1.188-1.188 1.188-.657 0-1.094-.532-1.766-1.344m-.578.297c-.266.453-.875 1.172-1.735 1.172C1.22-.187.734-.828.734-1.5s.547-1.187 1.188-1.187 1.094.53 1.75 1.328m0 0" style="stroke:none;stroke-width:0" transform="matrix(.99845 0 0 1.22348 269.124 18.316)"/></g><g style="fill:#000;fill-opacity:1"><path d="M6.844-3.266c.156 0 .343 0 .343-.187 0-.203-.187-.203-.328-.203H.891c-.141 0-.328 0-.328.203 0 .187.187.187.328.187zm.015 1.938c.141 0 .329 0 .329-.203 0-.188-.188-.188-.344-.188H.89c-.141 0-.328 0-.328.188 0 .203.187.203.328.203zm0 0" style="stroke:none;stroke-width:0" transform="matrix(.99845 0 0 1.22348 280.315 16.488)"/></g><g style="fill:#000;fill-opacity:1"><path d="M2.938-6.375c0-.25 0-.266-.235-.266C2.078-6 1.203-6 .891-6v.313c.203 0 .78 0 1.297-.266v5.172c0 .36-.032.469-.922.469H.953V0c.344-.031 1.203-.031 1.61-.031.39 0 1.265 0 1.609.031v-.312h-.313c-.906 0-.921-.11-.921-.47zm0 0" style="stroke:none;stroke-width:0" transform="matrix(.99845 0 0 1.22348 290.817 16.488)"/></g></g></g></svg>